<svg width="50" height="10" viewBox="0 0 50 10" fill="none" xmlns="http://www.w3.org/2000/svg">
<path d="M9.97656 5.31543H10.6724C10.8856 5.31543 11.0752 5.23161 11.2412 5.06396C11.3584 4.94515 11.417 4.76855 11.417 4.53418C11.417 4.31608 11.3584 4.13949 11.2412 4.00439C11.0964 3.83675 10.9067 3.75293 10.6724 3.75293H9.97656V5.31543ZM9.48828 7.09766V3.43555L9.74707 3.31348H10.6724C11.0435 3.31348 11.3446 3.43148 11.5757 3.66748C11.7954 3.89209 11.9053 4.18099 11.9053 4.53418C11.9053 4.889 11.7954 5.1779 11.5757 5.40088C11.3429 5.63688 11.0418 5.75488 10.6724 5.75488H9.97656V6.87793L9.5127 7.09766H9.48828ZM12.5156 6.07227V5.24219C12.5156 4.97363 12.6165 4.74007 12.8184 4.5415C13.0072 4.35758 13.244 4.26562 13.5288 4.26562C13.8104 4.26562 14.0472 4.35758 14.2393 4.5415C14.4411 4.73682 14.542 4.97038 14.542 5.24219V6.07227C14.542 6.34082 14.4411 6.57438 14.2393 6.77295C14.0505 6.95687 13.8136 7.04883 13.5288 7.04883C13.2472 7.04883 13.0104 6.95687 12.8184 6.77295C12.6165 6.57764 12.5156 6.34408 12.5156 6.07227ZM13.0039 6.07227C13.0039 6.25944 13.0544 6.39697 13.1553 6.48486C13.2578 6.57113 13.3823 6.61426 13.5288 6.61426C13.6753 6.61426 13.799 6.57113 13.8999 6.48486C14.0024 6.39697 14.0537 6.25944 14.0537 6.07227V5.24219C14.0537 5.05501 14.0024 4.91829 13.8999 4.83203C13.799 4.74414 13.6753 4.7002 13.5288 4.7002C13.3823 4.7002 13.2578 4.74414 13.1553 4.83203C13.0544 4.91829 13.0039 5.05501 13.0039 5.24219V6.07227ZM16.9346 5.24219C16.9346 5.05501 16.8833 4.91829 16.7808 4.83203C16.6799 4.74414 16.5562 4.7002 16.4097 4.7002C16.2632 4.7002 16.1387 4.74414 16.0361 4.83203C15.9352 4.91829 15.8848 5.05501 15.8848 5.24219V6.07227C15.8848 6.25944 15.9352 6.39697 16.0361 6.48486C16.1387 6.57113 16.2632 6.61426 16.4097 6.61426C16.5562 6.61426 16.6799 6.57113 16.7808 6.48486C16.8833 6.39697 16.9346 6.25944 16.9346 6.07227V5.24219ZM17.4229 5.24219V6.07227C17.4229 6.34082 17.3219 6.57438 17.1201 6.77295C16.9313 6.95687 16.6945 7.04883 16.4097 7.04883C16.1948 7.04883 16.0199 6.97965 15.8848 6.84131V7.87891L15.4209 8.09863H15.3965V5.24219C15.3965 4.97363 15.4974 4.74007 15.6992 4.5415C15.888 4.35758 16.1248 4.26562 16.4097 4.26562C16.6912 4.26562 16.9281 4.35758 17.1201 4.5415C17.3219 4.73682 17.4229 4.97038 17.4229 5.24219ZM18.1553 6.07227V5.24219C18.1553 4.97363 18.2562 4.74007 18.458 4.5415C18.6468 4.35758 18.8836 4.26562 19.1685 4.26562C19.45 4.26562 19.6868 4.35758 19.8789 4.5415C20.0807 4.73682 20.1816 4.97038 20.1816 5.24219V6.07227C20.1816 6.34082 20.0807 6.57438 19.8789 6.77295C19.6901 6.95687 19.4533 7.04883 19.1685 7.04883C18.8869 7.04883 18.6501 6.95687 18.458 6.77295C18.2562 6.57764 18.1553 6.34408 18.1553 6.07227ZM18.6436 6.07227C18.6436 6.25944 18.694 6.39697 18.7949 6.48486C18.8975 6.57113 19.022 6.61426 19.1685 6.61426C19.3149 6.61426 19.4386 6.57113 19.5396 6.48486C19.6421 6.39697 19.6934 6.25944 19.6934 6.07227V5.24219C19.6934 5.05501 19.6421 4.91829 19.5396 4.83203C19.4386 4.74414 19.3149 4.7002 19.1685 4.7002C19.022 4.7002 18.8975 4.74414 18.7949 4.83203C18.694 4.91829 18.6436 5.05501 18.6436 5.24219V6.07227ZM20.9141 7.09766V5.24219C20.9141 4.97363 21.015 4.74007 21.2168 4.5415C21.4056 4.35758 21.6424 4.26562 21.9272 4.26562H22.2568V4.29004L22.0615 4.7002H21.9272C21.7808 4.7002 21.6562 4.74414 21.5537 4.83203C21.4528 4.91829 21.4023 5.05501 21.4023 5.24219C21.4023 5.24219 21.4023 5.78743 21.4023 6.87793L20.9385 7.09766H20.9141ZM22.6719 6.07227V5.24219C22.6719 4.97363 22.7728 4.74007 22.9746 4.5415C23.1634 4.35758 23.4002 4.26562 23.6851 4.26562C23.9666 4.26562 24.2035 4.35758 24.3955 4.5415C24.5973 4.73682 24.6982 4.97038 24.6982 5.24219V6.07227C24.6982 6.34082 24.5973 6.57438 24.3955 6.77295C24.2067 6.95687 23.9699 7.04883 23.6851 7.04883C23.4035 7.04883 23.1667 6.95687 22.9746 6.77295C22.7728 6.57764 22.6719 6.34408 22.6719 6.07227ZM23.1602 6.07227C23.1602 6.25944 23.2106 6.39697 23.3115 6.48486C23.4141 6.57113 23.5386 6.61426 23.6851 6.61426C23.8315 6.61426 23.9552 6.57113 24.0562 6.48486C24.1587 6.39697 24.21 6.25944 24.21 6.07227V5.24219C24.21 5.05501 24.1587 4.91829 24.0562 4.83203C23.9552 4.74414 23.8315 4.7002 23.6851 4.7002C23.5386 4.7002 23.4141 4.74414 23.3115 4.83203C23.2106 4.91829 23.1602 5.05501 23.1602 5.24219V6.07227ZM25.4307 7.09766V5.24219C25.4307 4.97363 25.5316 4.74007 25.7334 4.5415C25.9222 4.35758 26.159 4.26562 26.4438 4.26562C26.7254 4.26562 26.9622 4.35758 27.1543 4.5415C27.3561 4.73682 27.457 4.97038 27.457 5.24219V6.87793L26.9932 7.09766H26.9688V5.24219C26.9688 5.05501 26.9175 4.91829 26.8149 4.83203C26.714 4.74414 26.5903 4.7002 26.4438 4.7002C26.2974 4.7002 26.1729 4.74414 26.0703 4.83203C25.9694 4.91829 25.9189 5.05501 25.9189 5.24219V6.87793L25.4551 7.09766H25.4307ZM30.2646 7.09766V4.48535C30.2646 4.13379 30.3745 3.84489 30.5942 3.61865C30.8254 3.38265 31.1265 3.26465 31.4976 3.26465C31.8638 3.26465 32.1649 3.38265 32.4009 3.61865C32.6206 3.83675 32.7305 4.12565 32.7305 4.48535V6.87793L32.2666 7.09766H32.2422V4.48535C32.2422 4.26725 32.1836 4.09066 32.0664 3.95557C31.9215 3.78792 31.7319 3.7041 31.4976 3.7041C31.2632 3.7041 31.0736 3.78792 30.9287 3.95557C30.8115 4.09066 30.7529 4.26725 30.7529 4.48535V6.87793L30.2891 7.09766H30.2646ZM35.6113 5.91846V6.07227C35.6113 6.34082 35.5104 6.57438 35.3086 6.77295C35.1198 6.95687 34.883 7.04883 34.5981 7.04883C34.3166 7.04883 34.0798 6.95687 33.8877 6.77295C33.6859 6.57764 33.585 6.34408 33.585 6.07227V5.24219C33.585 4.97363 33.6859 4.74007 33.8877 4.5415C34.0765 4.35758 34.3133 4.26562 34.5981 4.26562C34.8748 4.26562 35.1117 4.35758 35.3086 4.5415C35.5104 4.73031 35.6113 4.94027 35.6113 5.17139V5.17627L34.1221 6.34326C34.1465 6.3986 34.1807 6.44499 34.2246 6.48242C34.3271 6.57031 34.4517 6.61426 34.5981 6.61426C34.7446 6.61426 34.8683 6.57031 34.9692 6.48242C35.0718 6.39453 35.123 6.27979 35.123 6.13818L35.5869 5.91846H35.6113ZM34.0732 5.8501L35.0938 5.02246C35.0677 4.94271 35.027 4.87923 34.9717 4.83203C34.8691 4.74414 34.7446 4.7002 34.5981 4.7002C34.4517 4.7002 34.3271 4.74414 34.2246 4.83203C34.1237 4.91829 34.0732 5.05501 34.0732 5.24219V5.8501ZM36.666 7.09766V4.75879H36.0386V4.73438L36.2363 4.31445H36.666V3.43555L37.1299 3.21582H37.1543V4.31445H37.7817V4.33887L37.584 4.75879H37.1543V6.87793L36.6904 7.09766H36.666ZM41.7734 4.2168V6.07227C41.7734 6.34082 41.6725 6.57438 41.4707 6.77295C41.2819 6.95687 41.0451 7.04883 40.7603 7.04883C40.5015 7.04883 40.2777 6.95443 40.0889 6.76562C40.0531 6.72982 40.0205 6.6875 39.9912 6.63867C39.9619 6.68587 39.9294 6.72738 39.8936 6.76318C39.6901 6.95361 39.4663 7.04883 39.2222 7.04883C38.9406 7.04883 38.7038 6.95687 38.5117 6.77295C38.3099 6.57764 38.209 6.34408 38.209 6.07227V4.43652L38.6729 4.2168H38.6973V6.07227C38.6973 6.25944 38.7477 6.39697 38.8486 6.48486C38.9512 6.57113 39.0757 6.61426 39.2222 6.61426C39.3687 6.61426 39.4924 6.57113 39.5933 6.48486C39.6958 6.39697 39.7471 6.25944 39.7471 6.07227V4.43652L40.2109 4.2168H40.2354V6.07227C40.2354 6.25944 40.2858 6.39697 40.3867 6.48486C40.4893 6.57113 40.6138 6.61426 40.7603 6.61426C40.9067 6.61426 41.0304 6.57113 41.1313 6.48486C41.2339 6.39697 41.2852 6.25944 41.2852 6.07227V4.43652L41.749 4.2168H41.7734ZM42.5059 6.07227V5.24219C42.5059 4.97363 42.6068 4.74007 42.8086 4.5415C42.9974 4.35758 43.2342 4.26562 43.519 4.26562C43.8006 4.26562 44.0374 4.35758 44.2295 4.5415C44.4313 4.73682 44.5322 4.97038 44.5322 5.24219V6.07227C44.5322 6.34082 44.4313 6.57438 44.2295 6.77295C44.0407 6.95687 43.8039 7.04883 43.519 7.04883C43.2375 7.04883 43.0007 6.95687 42.8086 6.77295C42.6068 6.57764 42.5059 6.34408 42.5059 6.07227ZM42.9941 6.07227C42.9941 6.25944 43.0446 6.39697 43.1455 6.48486C43.248 6.57113 43.3726 6.61426 43.519 6.61426C43.6655 6.61426 43.7892 6.57113 43.8901 6.48486C43.9927 6.39697 44.0439 6.25944 44.0439 6.07227V5.24219C44.0439 5.05501 43.9927 4.91829 43.8901 4.83203C43.7892 4.74414 43.6655 4.7002 43.519 4.7002C43.3726 4.7002 43.248 4.74414 43.1455 4.83203C43.0446 4.91829 42.9941 5.05501 42.9941 5.24219V6.07227ZM45.2646 7.09766V5.24219C45.2646 4.97363 45.3656 4.74007 45.5674 4.5415C45.7562 4.35758 45.993 4.26562 46.2778 4.26562H46.6074V4.29004L46.4121 4.7002H46.2778C46.1313 4.7002 46.0068 4.74414 45.9043 4.83203C45.8034 4.91829 45.7529 5.05501 45.7529 5.24219C45.7529 5.24219 45.7529 5.78743 45.7529 6.87793L45.2891 7.09766H45.2646ZM47.1445 7.09766V3.43555L47.6084 3.21582H47.6328V5.24951L48.6533 4.2168H48.6777L49.1074 4.41943L48.2969 5.16406C48.528 5.19499 48.7184 5.27067 48.8682 5.39111C49.07 5.55713 49.1709 5.79069 49.1709 6.0918V6.87793L48.707 7.09766H48.6826V6.0918C48.6826 5.90462 48.6313 5.7679 48.5288 5.68164C48.4279 5.59375 48.3042 5.5498 48.1577 5.5498C48.0112 5.5498 47.8867 5.59375 47.7842 5.68164C47.6833 5.76953 47.6328 5.90625 47.6328 6.0918V6.87793L47.1689 7.09766H47.1445Z" fill="black"/>
<path d="M3.28564 9.86159C3.28034 9.8495 3.19226 9.60692 3.08991 9.32252L2.90381 8.80543L2.69442 8.45353L2.48504 8.10164L2.00738 7.80569L1.52971 7.50975L2.24392 7.50201L2.95812 7.49426L3.27623 7.40314C3.45119 7.35302 3.59915 7.31199 3.60503 7.31197C3.61091 7.31196 3.5981 7.36944 3.57658 7.43973L3.53743 7.56752L3.57572 7.53131C3.59678 7.5114 3.86585 7.24453 4.17365 6.93828C4.48145 6.63203 4.75045 6.36462 4.77144 6.34405L4.8096 6.30665L4.63863 5.12199C4.5446 4.47043 4.4657 3.93593 4.4633 3.93421C4.4609 3.9325 4.37818 3.90949 4.27949 3.88308C4.18079 3.85668 4.09845 3.83401 4.09651 3.83271C4.09457 3.83141 4.1292 3.70571 4.17345 3.55339C4.21771 3.40106 4.25233 3.2754 4.25039 3.27414C4.2201 3.25452 4.0872 3.22246 4.07751 3.23243C4.07043 3.23971 3.96312 3.55229 3.83903 3.92704C3.71495 4.3018 3.60913 4.61274 3.60388 4.61803C3.59863 4.62331 3.41815 4.35155 3.20282 4.01412C2.98748 3.67668 2.80421 3.40036 2.79553 3.40006C2.78686 3.39977 2.74836 3.4103 2.70996 3.42347L2.64016 3.44742L2.77001 3.66973L2.89985 3.89205L2.23129 4.15865L1.56273 4.42525H0.781365H0L0.129002 4.13679L0.258004 3.84834L0.161005 3.51156C0.107655 3.32634 0.0662574 3.17096 0.0690094 3.16627C0.0717615 3.16158 0.276955 2.84775 0.524996 2.46886L0.975979 1.77997L2.55047 1.43596L4.12497 1.09195L4.66715 0.545973L5.20934 0L5.22565 0.943987L5.24196 1.88797L5.82108 2.28665C6.1396 2.50592 6.40566 2.6897 6.41233 2.69505C6.419 2.7004 6.50904 3.36718 6.61241 4.17679L6.80037 5.6488L6.47319 6.27222L6.14601 6.89564L5.02695 7.64229L3.90788 8.38895L4.04217 8.39322L4.17646 8.3975L4.11378 8.43924C4.07931 8.46219 3.96349 8.54928 3.85641 8.63278L3.66172 8.78458L3.53351 9.16557C3.46299 9.37511 3.38054 9.62238 3.35029 9.71506C3.32004 9.80775 3.29095 9.87368 3.28564 9.86159Z" fill="black"/>
</svg>
